:SAMPLES-PER-SECOND 30
:FULLY-SPECIFIED
:DEGREES
89
root  34.98920831 36.5497469 -14.47926919 10.9257679 3.957441092 3.075683117
lowerback  -7.888850212 2.052109957 2.00323987
upperback  -4.092919827 2.243060112 -3.87887001
thorax  0.4197820127 0.8918899894 -4.965139866
lowerneck  -14.67450047 2.13451004 2.65809989
upperneck  10.72669983 1.458570004 5.085330009
head  5.63575983 1.150390029 1.303820014
lclavicle  0 -4.497500157e-015 -2.743230041e-014
lhumerus  -44.10599899 26.68770027 68.42449951
lradius  -0.4914264977 -6.507048965e-006 27.32780266
lwrist  4.824992743e-007 -3.790274832e-007 -30.94560242
lhand  -0 -36.98939896 -10.68760014
lfingers  90 7.125020027 -90
lthumb  94.86070534 -25.52003089 101.1658851
rclavicle  0 -4.497500157e-015 -2.743230041e-014
rhumerus  29.66749954 6.463609695 -61.80979919
rradius  -5.16745672e-007 2.214343908e-008 86.91369629
rwrist  1.129822067e-006 0.001802438172 -177.0429993
rhand  -1.769777576e-031 3.95517993 -6.913129807
rfingers  -90 -7.125020027 -90
rthumb  -84.8620664 -9.040447278 -60.22064032
rfemur  -12.78356743 13.59473038 13.87748146
rtibia  -0.8024853468 1.220018148 20.2221508
rfoot  -0.475815177 -17.71750259 -40.92425537
rtoes  4.173820282 19.57709745 -102.2865943
lfemur  -10.32456684 -18.01433945 -18.57817078
ltibia  3.107158422 1.973922968 14.15402222
lfoot  0.4317439497 -28.71345711 31.79807091
ltoes  -8.551943497 -18.14745149 -115.7717533
90
root  34.98777555 36.54896293 -14.4804902 10.9468174 4.144062519 3.098737478
lowerback  -7.879169941 2.072619915 1.998720407
upperback  -4.095829964 2.270809889 -3.899250031
thorax  0.4148269892 0.9055119753 -4.981800079
lowerneck  -14.71500015 2.082859993 2.678139925
upperneck  10.71850014 1.381079912 5.094230175
head  5.641280174 1.114070058 1.296849966
lclavicle  0 -4.497500157e-015 -2.743230041e-014
lhumerus  -44.04629898 26.55010033 68.48259735
lradius  -0.4915502965 -6.507048965e-006 27.36849976
lwrist  4.824992743e-007 -3.790274832e-007 -30.68440056
lhand  -0 -36.95709991 -10.71920013
lfingers  90 7.125020027 -90
lthumb  94.85225646 -25.55221243 101.1341023
rclavicle  0 -4.497500157e-015 -2.743230041e-014
rhumerus  31.17580032 6.266719818 -61.54359818
rradius  -5.16745672e-007 2.214343908e-008 86.26190186
rwrist  1.129822067e-006 0.001802438172 -176.720993
rhand  -1.769353062e-031 3.751100063 -6.897109985
rfingers  -90 -7.125020027 -90
rthumb  -84.90198191 -9.042193947 -60.41862445
rfemur  -12.80378246 13.54898262 13.90192986
rtibia  -0.8378074169 1.271419048 20.27683449
rfoot  -0.5030460358 -17.59683228 -41.01362991
rtoes  4.170663246 19.57774502 -102.2771725
lfemur  -10.34614372 -18.0855732 -18.57858658
ltibia  3.138865232 1.997902393 14.1295414
lfoot  0.4326414764 -28.74495697 31.71096802
ltoes  -8.5086778 -18.16723907 -115.6329155
91
root  34.98384671 36.5480468 -14.48162559 10.9640131 4.33256197 3.112919092
lowerback  -7.853800297 2.095900059 1.999610186
upperback  -4.106840134 2.300960064 -3.929399967
thorax  0.3936530054 0.9193609953 -5.012129784
lowerneck  -14.76790047 2.027029991 2.710319996
upperneck  10.72000027 1.294909835 5.097740173
head  5.652190208 1.073940039 1.285680056
lclavicle  0 -4.497500157e-015 -2.743230041e-014
lhumerus  -44.00970078 26.43079948 68.51049805
lradius  -0.491668731 -6.507048965e-006 27.39570045
lwrist  4.824992743e-007 -3.790274832e-007 -30.44139862
lhand  -0 -36.96749878 -10.66009998
lfingers  90 7.125020027 -90
lthumb  94.84449732 -25.49376558 101.1398403
rclavicle  0 -4.497500157e-015 -2.743230041e-014
rhumerus  32.64979935 6.112249851 -60.57450104
rradius  -5.16745672e-007 2.214343908e-008 85.7858963
rwrist  1.129822067e-006 0.001802438172 -177.0780029
rhand  -1.769229933e-031 3.689779997 -6.684559822
rfingers  -90 -7.125020027 -90
rthumb  -84.81021591 -9.223494882 -60.46158511
rfemur  -12.83077526 13.4469471 13.94110489
rtibia  -0.8713960648 1.309294701 20.34509087
rfoot  -0.5370783806 -17.52921295 -41.06665802
rtoes  4.165023365 19.57890058 -102.2603419
lfemur  -10.36184311 -18.19994354 -18.56279755
ltibia  3.168285131 2.026868105 14.10281754
lfoot  0.4418312907 -28.78348732 31.67008209
ltoes  -8.516563034 -18.16364206 -115.658208
92
root  34.98107129 36.54551769 -14.48527058 10.94633293 4.511610985 3.115646839
lowerback  -7.837069988 2.149770021 1.992000103
upperback  -4.123660088 2.370440006 -3.991039991
thorax  0.3762210011 0.9517549872 -5.06716013
lowerneck  -14.88809967 1.956519961 2.768699884
upperneck  10.7578001 1.172699928 5.126150131
head  5.686580181 1.02026999 1.276059985
lclavicle  0 -4.497500157e-015 -2.743230041e-014
lhumerus  -44.0284996 26.28499985 68.55930328
lradius  -0.4917820394 -6.507048965e-006 27.52529716
lwrist  4.824992743e-007 -3.790274832e-007 -30.21960068
lhand  -0 -36.98609924 -10.67749977
lfingers  90 7.125020027 -90
lthumb  94.85697402 -25.5101971 101.1614007
rclavicle  0 -4.497500157e-015 -2.743230041e-014
rhumerus  33.98690033 5.751090527 -59.99470139
rradius  -5.16745672e-007 2.214343908e-008 85.23290253
rwrist  1.129822067e-006 0.001802438172 -177.1190033
rhand  -1.769483897e-031 3.81517005 -6.705230236
rfingers  -90 -7.125020027 -90
rthumb  -84.79081997 -9.21273335 -60.34080868
rfemur  -12.79155064 13.34759712 13.9916954
rtibia  -0.8900486827 1.332132459 20.35509109
rfoot  -0.5465834737 -17.48847008 -41.11423492
rtoes  4.150123384 19.58194555 -102.2158815
lfemur  -10.34560299 -18.23865318 -18.54824066
ltibia  3.192579508 2.05825305 14.10034657
lfoot  0.4637647867 -28.85447502 31.60623741
ltoes  -8.520002501 -18.16207178 -115.6692419
93
root  34.97253178 36.54214153 -14.50468799 11.00250149 4.605292797 3.169511318
lowerback  -7.922530174 2.243880033 2.160569906
upperback  -4.083570004 2.488470078 -4.05656004
thorax  0.4866780043 1.011980057 -5.218649864
lowerneck  -14.96459961 1.883700013 2.786079884
upperneck  10.7493 1.061020017 5.158579826
head  5.698400021 0.9690790176 1.274129987
lclavicle  0 -4.497500157e-015 -2.743230041e-014
lhumerus  -43.96229935 26.11520004 68.62640381
lradius  -0.4918904901 -6.507048965e-006 27.55730057
lwrist  4.824992743e-007 -3.790274832e-007 -29.93199921
lhand  -4.424073174e-031 -37.04510117 -10.63290024
lfingers  90 7.125020027 -90
lthumb  94.8749444 -25.4642751 101.220221
rclavicle  0 -4.497500157e-015 -2.743230041e-014
rhumerus  35.32379913 5.455049992 -59.50130081
rradius  -5.16745672e-007 2.214343908e-008 84.62950134
rwrist  1.129822067e-006 0.001802438172 -177.0215454
rhand  -1.769638061e-031 3.889300108 -6.919859886
rfingers  -90 -7.125020027 -90
rthumb  -84.88097321 -9.030612736 -60.28548092
rfemur  -12.93669224 13.30845833 14.00047112
rtibia  -0.9720106125 1.322412372 20.53892899
rfoot  -0.6320171356 -17.49865913 -41.16921616
rtoes  4.18977977 19.57381598 -102.3342277
lfemur  -10.42914677 -18.4861412 -18.54594803
ltibia  3.226267099 2.021105528 14.09187698
lfoot  0.5130149722 -28.73337936 31.75747299
ltoes  -8.451836462 -18.19304598 -115.4507352
